<svg width="19" height="22" viewBox="0 0 19 22" fill="none" xmlns="http://www.w3.org/2000/svg">
<path d="M10.6665 -3.49691e-07L7.99984 -4.66255e-07L7.99984 16L5.33317 16L5.33317 18.6667L7.99984 18.6667L7.99984 21.3333L10.6665 21.3333L10.6665 18.6667L13.3332 18.6667L13.3332 16L10.6665 16L10.6665 -3.49691e-07ZM15.9998 13.3333L15.9998 16L13.3332 16L13.3332 13.3333L15.9998 13.3333ZM15.9998 13.3333L15.9998 10.6667L18.6665 10.6667L18.6665 13.3333L15.9998 13.3333ZM2.6665 13.3333L2.6665 16L5.33317 16L5.33317 13.3333L2.6665 13.3333ZM2.6665 13.3333L2.6665 10.6667L-0.000162591 10.6667L-0.000162707 13.3333L2.6665 13.3333Z" fill="#121212"/>
</svg>
