<svg width="24" height="25" viewBox="0 0 24 25" fill="none" xmlns="http://www.w3.org/2000/svg">
<path d="M12 0.5L12.5619 9.67534L16.5922 1.41345L13.6 10.1054L20.4853 4.01472L14.3946 10.9L23.0866 7.9078L14.8247 11.9381L24 12.5L14.8247 13.0619L23.0866 17.0922L14.3946 14.1L20.4853 20.9853L13.6 14.8946L16.5922 23.5866L12.5619 15.3247L12 24.5L11.4381 15.3247L7.4078 23.5866L10.4 14.8946L3.51472 20.9853L9.60537 14.1L0.913445 17.0922L9.17534 13.0619L0 12.5L9.17534 11.9381L0.913445 7.9078L9.60537 10.9L3.51472 4.01472L10.4 10.1054L7.4078 1.41345L11.4381 9.67534L12 0.5Z" fill="white"/>
</svg>
