<svg width="98" height="100" viewBox="0 0 98 100" fill="none" xmlns="http://www.w3.org/2000/svg">
<path d="M49 0L52.5603 34.4012L70.6942 4.95156L58.9758 37.4907L88.0916 18.8255L63.4155 43.0579L97.7464 38.874L65 50L97.7464 61.126L63.4155 56.9421L88.0916 81.1745L58.9758 62.5093L70.6942 95.0484L52.5603 65.5988L49 100L45.4397 65.5988L27.3058 95.0484L39.0242 62.5093L9.90842 81.1745L34.5845 56.9421L0.253605 61.126L33 50L0.253605 38.874L34.5845 43.0579L9.90842 18.8255L39.0242 37.4907L27.3058 4.95156L45.4397 34.4012L49 0Z" fill="#14F9A7"/>
</svg>
