<?xml version="1.0" encoding="UTF-8"?>
<!DOCTYPE svg PUBLIC "-//W3C//DTD SVG 1.1//EN" "http://www.w3.org/Graphics/SVG/1.1/DTD/svg11.dtd">
<!-- Creator: CorelDRAW X7 -->
<svg xmlns="http://www.w3.org/2000/svg" xml:space="preserve" width="160.4mm" height="127mm" version="1.1" style="shape-rendering:geometricPrecision; text-rendering:geometricPrecision; image-rendering:optimizeQuality; fill-rule:evenodd; clip-rule:evenodd"
viewBox="0 0 16040 12700"
 xmlns:xlink="http://www.w3.org/1999/xlink">
 <defs>
  <style type="text/css">
   <![CDATA[
    .str0 {stroke:#FEFEFE;stroke-width:17.64}
    .str1 {stroke:#CB3438;stroke-width:17.64}
    .str3 {stroke:#FEFEFE;stroke-width:7.62}
    .str2 {stroke:#CB3438;stroke-width:7.62}
    .fil0 {fill:#FEFEFE}
    .fil1 {fill:#CB3438}
   ]]>
  </style>
 </defs>
 <g id="Layer_x0020_1">
  <metadata id="CorelCorpID_0Corel-Layer"/>
  <polygon class="fil0" points="4355,3842 11975,3842 11975,5805 4355,5805 "/>
  <polygon class="fil1 str0" points="4355,1914 11975,1914 11975,4072 4355,4072 "/>
  <polygon class="fil1 str0" points="4355,5641 11975,5633 11977,7956 4357,7956 "/>
  <polygon class="fil0 str1" points="5494,2001 5856,2001 5856,2713 6288,2713 6288,2001 6625,2001 6623,3845 6288,3845 6288,2991 5856,2991 5856,3845 5494,3845 "/>
  <polygon class="fil0 str2" points="8150,5939 9282,5939 9281,6210 8434,6208 8437,6626 9265,6627 9266,6927 9262,7783 8150,7783 8150,7493 8943,7495 8944,6924 8150,6924 "/>
  <polygon class="fil1 str0" points="8988,3908 9350,3908 9883,3912 9883,4170 9350,4174 9350,4620 9875,4620 9875,4898 9350,4898 9350,5439 9869,5442 9869,5755 9350,5752 8988,5752 "/>
  <polygon class="fil1 str0" points="7707,3913 8069,3913 8069,4625 8501,4625 8501,3913 8839,3913 8836,5757 8501,5757 8501,4903 8069,4903 8069,5757 7707,5757 "/>
  <polygon class="fil0 str1" points="10031,1992 10369,1992 10932,2001 10933,2271 10369,2270 10367,3836 10031,3836 10036,2288 9462,2290 9462,2001 "/>
  <polygon class="fil0 str2" points="10023,5919 10361,5919 10924,5928 10925,6198 10361,6198 10359,7763 10023,7763 10028,6215 9454,6217 9454,5928 "/>
  <path class="fil0 str3" d="M5539 5928l337 0 564 9c348,19 387,989 -565,1052 -27,2 0,-170 0,-214 481,18 944,-688 1,-569l-2 1566 -335 0 4 -1548 -4 -296z"/>
  <polygon class="fil1 str0" points="6636,3891 6973,3891 7537,3900 7538,4170 6973,4170 6971,5735 6636,5735 6640,4187 6066,4189 6066,3900 "/>
  <polygon class="fil0 str1" points="8170,1992 8531,1992 8964,3154 8964,1992 9301,1992 9294,3842 8889,3842 8531,2788 8531,3836 8170,3836 "/>
  <path class="fil0 str1" d="M6802 2000l352 4 -2 1119c6,183 -34,320 264,334 235,-15 219,-180 232,-338l-4 -1123 322 4 -4 1257c-6,295 -250,585 -406,582l-348 0c-152,3 -407,-219 -408,-597l2 -1242z"/>
  <polygon class="fil0" points="6801,7772 7153,7767 7152,7013 7646,7013 7647,6719 7160,6715 7416,6314 7647,6719 7643,7776 7965,7772 7961,6692 7383,5911 6799,6707 "/>
 </g>
</svg>
