<?xml version="1.0" standalone="no"?>
<!DOCTYPE svg PUBLIC "-//W3C//DTD SVG 20010904//EN"
 "http://www.w3.org/TR/2001/REC-SVG-20010904/DTD/svg10.dtd">
<svg version="1.0" xmlns="http://www.w3.org/2000/svg"
 width="903.000000pt" height="717.000000pt" viewBox="0 0 903.000000 717.000000"
 preserveAspectRatio="xMidYMid meet">
<metadata>
Created by potrace 1.16, written by Peter Selinger 2001-2019
</metadata>
<g transform="translate(0.000000,717.000000) scale(0.100000,-0.100000)"
fill="#000000" stroke="none">
<path d="M20 5875 l0 -1265 1000 0 1000 0 0 103 0 104 444 7 c244 3 640 3 880
0 l436 -7 0 -104 0 -103 90 0 90 0 0 95 0 95 225 0 225 0 0 -95 0 -95 243 2
242 3 3 93 3 92 209 0 210 0 0 -95 0 -95 75 0 75 0 0 100 0 100 263 0 c144 0
387 -3 540 -7 l277 -6 0 -94 0 -93 1225 0 1225 0 0 1265 0 1265 -4490 0 -4490
0 0 -1265z m5068 773 c82 -222 196 -528 252 -680 57 -153 107 -278 112 -278 4
0 8 306 8 680 l0 680 190 0 190 0 0 -1085 0 -1085 -234 0 -234 0 -30 88 c-199
592 -387 1139 -393 1147 -5 5 -9 -263 -9 -608 l0 -617 -210 0 -210 0 0 1073
c0 591 3 1077 7 1080 3 4 97 7 209 7 l202 0 150 -402z m2380 395 l302 -6 0
-149 0 -148 -328 0 -329 0 -6 -517 c-4 -285 -7 -701 -7 -925 l0 -408 -189 0
-189 0 6 914 5 913 -341 -5 -342 -5 0 166 0 167 203 3 c466 6 933 7 1215 0z
m-5690 -425 l2 -418 260 0 260 0 0 420 0 420 190 0 190 0 0 -1080 0 -1080
-190 0 -190 0 0 505 0 505 -260 0 -260 0 0 -505 0 -505 -210 0 -210 0 0 1073
c0 591 3 1077 7 1081 4 3 97 5 207 4 l201 -3 3 -417z m1516 416 c14 -6 16 -81
16 -756 0 -535 3 -762 12 -795 26 -103 126 -158 293 -158 77 0 98 4 147 27 68
31 99 74 125 168 17 60 18 123 17 793 l-1 727 185 0 185 0 -7 -781 c-7 -728
-8 -785 -27 -857 -51 -200 -195 -407 -340 -487 l-54 -30 -260 0 c-260 0 -260
0 -315 26 -147 70 -271 230 -332 429 l-23 75 -3 813 -3 812 185 0 c101 0 191
-3 200 -6z"/>
<path d="M2188 4793 l-138 -4 0 -154 0 -155 335 0 335 0 0 -915 0 -915 185 0
185 0 0 925 0 925 335 0 335 0 0 143 0 144 -202 6 c-193 7 -1079 6 -1370 0z"/>
<path d="M3987 4773 c-4 -3 -7 -489 -7 -1080 l0 -1073 200 0 200 0 2 503 3
502 268 3 267 2 0 -505 0 -505 185 0 185 0 0 1080 0 1080 -185 0 -185 0 -2
-422 -3 -423 -265 0 -265 0 -3 423 -2 422 -193 0 c-107 0 -197 -3 -200 -7z"/>
<path d="M5500 3705 l0 -1075 505 0 505 0 0 170 0 170 -305 0 -305 0 0 335 0
335 310 0 310 0 0 150 0 150 -310 0 -310 0 0 273 0 274 227 6 c124 4 266 7
315 7 l88 0 0 140 0 140 -515 0 -515 0 0 -1075z"/>
<path d="M56 2733 l-39 -4 6 -781 c4 -430 7 -1037 7 -1350 l0 -568 4485 0
4485 0 0 1355 0 1355 -1230 0 -1230 0 0 -70 0 -70 -535 0 -535 0 0 70 0 70
-75 0 -75 0 0 -70 0 -70 -210 0 -210 0 0 70 0 70 -245 0 -245 0 0 -70 0 -70
-225 0 -225 0 0 70 0 70 -425 0 -425 0 0 -60 0 -60 -207 2 -208 3 -3 58 -3 57
-1297 -2 c-713 -1 -1315 -3 -1336 -5z m3887 -779 l326 -441 7 -640 7 -640
-188 -7 c-113 -4 -192 -3 -198 3 -5 5 -8 187 -6 450 l4 441 -287 0 -288 0 0
-445 0 -445 -210 0 -210 0 0 633 0 632 343 467 c318 433 343 466 358 450 9 -9
163 -216 342 -458z m3820 449 c4 -2 7 -74 7 -159 l0 -154 -335 0 -335 0 0
-925 0 -925 -195 0 -195 0 0 915 0 915 -335 0 -335 0 0 170 0 170 303 3 c354
4 1409 -3 1420 -10z m-5222 -15 c191 -85 261 -390 154 -674 -111 -296 -408
-505 -788 -555 l-97 -12 0 -464 0 -463 -202 2 -203 3 0 1093 0 1094 550 -4
c481 -3 555 -6 586 -20z m3289 -153 l0 -155 -500 0 -500 0 0 -250 0 -250 490
0 490 0 0 -537 c0 -296 -3 -602 -7 -680 l-6 -143 -649 0 -648 0 0 171 0 170
465 -3 465 -3 0 338 0 337 -465 0 -465 0 0 580 0 580 665 0 665 0 0 -155z"/>
<path d="M3478 1717 l-147 -232 140 -3 c76 -1 202 -1 279 0 l140 3 -126 220
c-69 121 -129 225 -132 232 -4 6 -71 -89 -154 -220z"/>
<path d="M1870 2081 l-55 -6 -3 -333 -2 -334 67 7 c261 28 519 216 564 411 21
93 -23 174 -120 217 -91 40 -280 56 -451 38z"/>
</g>
</svg>
